<svg width="404" height="266" viewBox="0 0 404 266" fill="none" xmlns="http://www.w3.org/2000/svg">
<path d="M364.04 174.47C364.04 174.47 357.16 194.49 355.5 194.7L351.23 190.4C351.23 190.4 375.91 123.24 340.55 72.23L344.78 66.93L357.76 85.52L378.26 71.89C378.26 71.89 346.49 16.12 340.34 15.82C340.34 15.82 277.49 8.99997 197.55 58.88C197.55 58.88 177.53 73.85 177.53 84.67C177.53 91.36 180.61 97.4 185.56 101.71C185.49 102.07 185.42 102.42 185.36 102.76C174.36 108.28 161.4 115.38 148.09 121.36C72.07 155.56 18.1 138.32 15.58 151.36C11.88 170.46 128.07 205.82 197.89 195.27C202.55 207.45 208.15 220.56 210.87 221.22C210.87 221.22 278.07 263.25 358.86 245.61C358.86 245.61 380.55 220.51 386.54 183.87L364.04 174.47Z" stroke="#3455AB" stroke-width="31" stroke-miterlimit="10"/>
<path d="M206.84 109.69C221.343 109.69 233.1 99.0881 233.1 86.01C233.1 72.9319 221.343 62.33 206.84 62.33C192.337 62.33 180.58 72.9319 180.58 86.01C180.58 99.0881 192.337 109.69 206.84 109.69Z" fill="white"/>
<path d="M344.78 66.93L357.76 85.52L378.26 71.89C378.26 71.89 346.49 16.12 340.34 15.82C340.34 15.82 277.49 8.99997 197.55 58.88C197.55 58.88 183.54 102.56 184.91 108.45L199.26 114.34C199.26 114.34 198.58 156.16 203.7 166.7L190.38 174.45C190.38 174.45 205.75 219.99 210.88 221.23C210.88 221.23 278.08 263.26 358.87 245.62C358.87 245.62 380.56 220.52 386.55 183.88L364.05 174.48C364.05 174.48 357.17 194.5 355.51 194.71L351.24 190.41C351.24 190.41 375.92 123.25 340.56 72.24L344.79 66.94L344.78 66.93Z" fill="#5865F2"/>
<path d="M291.21 124.76C305.713 124.76 317.47 114.158 317.47 101.08C317.47 88.0019 305.713 77.4 291.21 77.4C276.707 77.4 264.95 88.0019 264.95 101.08C264.95 114.158 276.707 124.76 291.21 124.76Z" fill="white"/>
<path d="M15.59 151.36C18.12 138.32 72.08 155.56 148.1 121.36C178.57 107.65 207.17 88.12 214.76 95.11C221.43 101.25 201.89 118.66 209.17 139.84C215.93 159.51 239.49 164.07 237.85 175.54C236.42 185.54 217.27 190.85 211.9 192.34C145.04 210.89 11.62 171.81 15.58 151.36H15.59Z" fill="#F2D358"/>
<path d="M222.56 159.51C229.73 163.59 237.69 172.12 233.23 180.86C228.1 189.7 216.17 192.76 207.17 194.97C198.01 197.02 188.53 197.84 179.21 198.18C163.39 198.79 147.6 198.04 131.86 196.55C100.39 193.54 32.72 181.85 15.59 153.35C36.55 173.36 117.57 180.01 148.63 183.03C168.81 184.5 189.16 186.46 209.26 184.37C227.82 182.1 237.23 176.6 222.56 159.5V159.51Z" fill="#F2C23C"/>
</svg>
